HIERARCHY
ROOT mixamorig:Hips
{
	OFFSET -0.000008 104.274872 1.554316
	CHANNELS 6 Xposition Yposition Zposition Xrotation Yrotation Zrotation
	JOINT mixamorig:Spine
	{
		OFFSET -0.000005 10.181595 0.131519
		CHANNELS 6 Xposition Yposition Zposition Xrotation Yrotation Zrotation
		JOINT mixamorig:Spine1
		{
			OFFSET -0.000000 9.893959 -1.470707
			CHANNELS 6 Xposition Yposition Zposition Xrotation Yrotation Zrotation
			JOINT mixamorig:Spine2
			{
				OFFSET -0.000000 9.220757 -1.370641
				CHANNELS 6 Xposition Yposition Zposition Xrotation Yrotation Zrotation
				JOINT mixamorig:Neck
				{
					OFFSET 0.000001 16.740417 -2.049036
					CHANNELS 6 Xposition Yposition Zposition Xrotation Yrotation Zrotation
					JOINT mixamorig:Head
					{
						OFFSET 0.000000 9.617874 1.685006
						CHANNELS 6 Xposition Yposition Zposition Xrotation Yrotation Zrotation
						JOINT mixamorig:HeadTop_End
						{
							OFFSET 0.000002 22.037354 7.501101
							CHANNELS 6 Xposition Yposition Zposition Xrotation Yrotation Zrotation
							End Site
							{
								OFFSET 0.000168 2310.654297 -282.823242
							}
						}
					}
				}
				JOINT mixamorig:RightShoulder
				{
					OFFSET -4.569970 11.014908 -2.160885
					CHANNELS 6 Xposition Yposition Zposition Xrotation Yrotation Zrotation
					JOINT mixamorig:RightArm
					{
						OFFSET -10.592851 -0.524811 -2.232101
						CHANNELS 6 Xposition Yposition Zposition Xrotation Yrotation Zrotation
						JOINT mixamorig:RightForeArm
						{
							OFFSET -27.841511 0.000031 -0.000004
							CHANNELS 6 Xposition Yposition Zposition Xrotation Yrotation Zrotation
							JOINT mixamorig:RightHand
							{
								OFFSET -28.328831 -0.000015 0.000015
								CHANNELS 6 Xposition Yposition Zposition Xrotation Yrotation Zrotation
								JOINT mixamorig:RightHandThumb1
								{
									OFFSET -2.464806 -1.573990 2.681852
									CHANNELS 6 Xposition Yposition Zposition Xrotation Yrotation Zrotation
									JOINT mixamorig:RightHandThumb2
									{
										OFFSET -3.215179 -1.872803 1.924282
										CHANNELS 6 Xposition Yposition Zposition Xrotation Yrotation Zrotation
										JOINT mixamorig:RightHandThumb3
										{
											OFFSET -2.654831 -1.527969 1.512609
											CHANNELS 6 Xposition Yposition Zposition Xrotation Yrotation Zrotation
											JOINT mixamorig:RightHandThumb4
											{
												OFFSET -2.018814 -1.152008 1.108052
												CHANNELS 6 Xposition Yposition Zposition Xrotation Yrotation Zrotation
												End Site
												{
													OFFSET -188.809540 -114.533607 132.431396
												}
											}
										}
									}
								}
								JOINT mixamorig:RightHandIndex1
								{
									OFFSET -9.108284 -0.517868 2.259835
									CHANNELS 6 Xposition Yposition Zposition Xrotation Yrotation Zrotation
									JOINT mixamorig:RightHandIndex2
									{
										OFFSET -3.699989 0.000000 0.001215
										CHANNELS 6 Xposition Yposition Zposition Xrotation Yrotation Zrotation
										JOINT mixamorig:RightHandIndex3
										{
											OFFSET -2.850006 0.000031 -0.000522
											CHANNELS 6 Xposition Yposition Zposition Xrotation Yrotation Zrotation
											JOINT mixamorig:RightHandIndex4
											{
												OFFSET -2.772186 -0.000015 -0.000020
												CHANNELS 6 Xposition Yposition Zposition Xrotation Yrotation Zrotation
												End Site
												{
													OFFSET -277.218445 0.000000 -0.050231
												}
											}
										}
									}
								}
								JOINT mixamorig:RightHandMiddle1
								{
									OFFSET -9.532516 -0.000031 -0.000023
									CHANNELS 6 Xposition Yposition Zposition Xrotation Yrotation Zrotation
									JOINT mixamorig:RightHandMiddle2
									{
										OFFSET -3.700005 -0.000015 0.003713
										CHANNELS 6 Xposition Yposition Zposition Xrotation Yrotation Zrotation
										JOINT mixamorig:RightHandMiddle3
										{
											OFFSET -2.949974 0.000015 -0.002054
											CHANNELS 6 Xposition Yposition Zposition Xrotation Yrotation Zrotation
											JOINT mixamorig:RightHandMiddle4
											{
												OFFSET -2.946640 0.000000 -0.000156
												CHANNELS 6 Xposition Yposition Zposition Xrotation Yrotation Zrotation
												End Site
												{
													OFFSET -294.664337 0.000000 -0.113670
												}
											}
										}
									}
								}
								JOINT mixamorig:RightHandRing1
								{
									OFFSET -9.103600 -0.043076 -1.865134
									CHANNELS 6 Xposition Yposition Zposition Xrotation Yrotation Zrotation
									JOINT mixamorig:RightHandRing2
									{
										OFFSET -3.379288 0.000000 -0.001055
										CHANNELS 6 Xposition Yposition Zposition Xrotation Yrotation Zrotation
										JOINT mixamorig:RightHandRing3
										{
											OFFSET -2.889687 -0.000015 0.000379
											CHANNELS 6 Xposition Yposition Zposition Xrotation Yrotation Zrotation
											JOINT mixamorig:RightHandRing4
											{
												OFFSET -2.638809 -0.000015 0.000941
												CHANNELS 6 Xposition Yposition Zposition Xrotation Yrotation Zrotation
												End Site
												{
													OFFSET -263.880371 0.000000 0.516020
												}
											}
										}
									}
								}
								JOINT mixamorig:RightHandPinky1
								{
									OFFSET -8.076683 -0.486710 -3.806280
									CHANNELS 6 Xposition Yposition Zposition Xrotation Yrotation Zrotation
									JOINT mixamorig:RightHandPinky2
									{
										OFFSET -3.600014 -0.000015 -0.003747
										CHANNELS 6 Xposition Yposition Zposition Xrotation Yrotation Zrotation
										JOINT mixamorig:RightHandPinky3
										{
											OFFSET -2.099983 0.000000 -0.005739
											CHANNELS 6 Xposition Yposition Zposition Xrotation Yrotation Zrotation
											JOINT mixamorig:RightHandPinky4
											{
												OFFSET -2.115768 -0.000031 -0.003680
												CHANNELS 6 Xposition Yposition Zposition Xrotation Yrotation Zrotation
												End Site
												{
													OFFSET -211.577087 0.000000 -0.350686
												}
											}
										}
									}
								}
							}
						}
					}
				}
				JOINT mixamorig:LeftShoulder
				{
					OFFSET 4.570447 11.014725 -2.160855
					CHANNELS 6 Xposition Yposition Zposition Xrotation Yrotation Zrotation
					JOINT mixamorig:LeftArm
					{
						OFFSET 10.592371 -0.524597 -2.232119
						CHANNELS 6 Xposition Yposition Zposition Xrotation Yrotation Zrotation
						JOINT mixamorig:LeftForeArm
						{
							OFFSET 27.841532 -0.000031 0.000026
							CHANNELS 6 Xposition Yposition Zposition Xrotation Yrotation Zrotation
							JOINT mixamorig:LeftHand
							{
								OFFSET 28.328846 -0.000061 0.000022
								CHANNELS 6 Xposition Yposition Zposition Xrotation Yrotation Zrotation
								JOINT mixamorig:LeftHandThumb1
								{
									OFFSET 2.466141 -1.576172 2.681732
									CHANNELS 6 Xposition Yposition Zposition Xrotation Yrotation Zrotation
									JOINT mixamorig:LeftHandThumb2
									{
										OFFSET 3.217812 -1.872070 1.916482
										CHANNELS 6 Xposition Yposition Zposition Xrotation Yrotation Zrotation
										JOINT mixamorig:LeftHandThumb3
										{
											OFFSET 2.656029 -1.528778 1.514513
											CHANNELS 6 Xposition Yposition Zposition Xrotation Yrotation Zrotation
											JOINT mixamorig:LeftHandThumb4
											{
												OFFSET 2.020889 -1.154053 1.115139
												CHANNELS 6 Xposition Yposition Zposition Xrotation Yrotation Zrotation
												End Site
												{
													OFFSET 190.885437 -115.081749 130.048782
												}
											}
										}
									}
								}
								JOINT mixamorig:LeftHandIndex1
								{
									OFFSET 9.109314 -0.518021 2.259871
									CHANNELS 6 Xposition Yposition Zposition Xrotation Yrotation Zrotation
									JOINT mixamorig:LeftHandIndex2
									{
										OFFSET 3.699989 0.000000 -0.000322
										CHANNELS 6 Xposition Yposition Zposition Xrotation Yrotation Zrotation
										JOINT mixamorig:LeftHandIndex3
										{
											OFFSET 2.850006 0.000000 0.000352
											CHANNELS 6 Xposition Yposition Zposition Xrotation Yrotation Zrotation
											JOINT mixamorig:LeftHandIndex4
											{
												OFFSET 2.774864 -0.000031 -0.000027
												CHANNELS 6 Xposition Yposition Zposition Xrotation Yrotation Zrotation
												End Site
												{
													OFFSET 277.486267 0.000000 -0.009857
												}
											}
										}
									}
								}
								JOINT mixamorig:LeftHandMiddle1
								{
									OFFSET 9.533394 0.000061 0.000044
									CHANNELS 6 Xposition Yposition Zposition Xrotation Yrotation Zrotation
									JOINT mixamorig:LeftHandMiddle2
									{
										OFFSET 3.699989 -0.000015 -0.000231
										CHANNELS 6 Xposition Yposition Zposition Xrotation Yrotation Zrotation
										JOINT mixamorig:LeftHandMiddle3
										{
											OFFSET 2.949997 -0.000015 -0.000059
											CHANNELS 6 Xposition Yposition Zposition Xrotation Yrotation Zrotation
											JOINT mixamorig:LeftHandMiddle4
											{
												OFFSET 2.952896 0.000031 0.000063
												CHANNELS 6 Xposition Yposition Zposition Xrotation Yrotation Zrotation
												End Site
												{
													OFFSET 295.289337 0.000000 0.022810
												}
											}
										}
									}
								}
								JOINT mixamorig:LeftHandRing1
								{
									OFFSET 9.104523 -0.042999 -1.865074
									CHANNELS 6 Xposition Yposition Zposition Xrotation Yrotation Zrotation
									JOINT mixamorig:LeftHandRing2
									{
										OFFSET 3.150009 -0.000031 0.000043
										CHANNELS 6 Xposition Yposition Zposition Xrotation Yrotation Zrotation
										JOINT mixamorig:LeftHandRing3
										{
											OFFSET 2.949982 -0.000015 0.000040
											CHANNELS 6 Xposition Yposition Zposition Xrotation Yrotation Zrotation
											JOINT mixamorig:LeftHandRing4
											{
												OFFSET 2.644348 0.000000 0.000057
												CHANNELS 6 Xposition Yposition Zposition Xrotation Yrotation Zrotation
												End Site
												{
													OFFSET 264.434631 0.000000 0.012105
												}
											}
										}
									}
								}
								JOINT mixamorig:LeftHandPinky1
								{
									OFFSET 8.077789 -0.486847 -3.806259
									CHANNELS 6 Xposition Yposition Zposition Xrotation Yrotation Zrotation
									JOINT mixamorig:LeftHandPinky2
									{
										OFFSET 3.599953 0.000031 0.014727
										CHANNELS 6 Xposition Yposition Zposition Xrotation Yrotation Zrotation
										JOINT mixamorig:LeftHandPinky3
										{
											OFFSET 2.100021 0.000015 0.007705
											CHANNELS 6 Xposition Yposition Zposition Xrotation Yrotation Zrotation
											JOINT mixamorig:LeftHandPinky4
											{
												OFFSET 2.125504 0.000031 0.007517
												CHANNELS 6 Xposition Yposition Zposition Xrotation Yrotation Zrotation
												End Site
												{
													OFFSET 212.550781 0.000000 0.625752
												}
											}
										}
									}
								}
							}
						}
					}
				}
			}
		}
	}
	JOINT mixamorig:RightUpLeg
	{
		OFFSET -8.207787 -6.751648 -1.599560
		CHANNELS 6 Xposition Yposition Zposition Xrotation Yrotation Zrotation
		JOINT mixamorig:RightLeg
		{
			OFFSET -0.000002 -44.370117 0.345942
			CHANNELS 6 Xposition Yposition Zposition Xrotation Yrotation Zrotation
			JOINT mixamorig:RightFoot
			{
				OFFSET 0.000003 -44.423679 -3.043532
				CHANNELS 6 Xposition Yposition Zposition Xrotation Yrotation Zrotation
				JOINT mixamorig:RightToeBase
				{
					OFFSET -0.000002 -8.728671 10.710558
					CHANNELS 6 Xposition Yposition Zposition Xrotation Yrotation Zrotation
					JOINT mixamorig:RightToe_End
					{
						OFFSET -0.000001 -0.000679 9.278119
						CHANNELS 6 Xposition Yposition Zposition Xrotation Yrotation Zrotation
						End Site
						{
							OFFSET 0.000000 -0.067690 927.812134
						}
					}
				}
			}
		}
	}
	JOINT mixamorig:LeftUpLeg
	{
		OFFSET 8.207793 -6.751686 -1.599556
		CHANNELS 6 Xposition Yposition Zposition Xrotation Yrotation Zrotation
		JOINT mixamorig:LeftLeg
		{
			OFFSET -0.000004 -44.370014 0.346954
			CHANNELS 6 Xposition Yposition Zposition Xrotation Yrotation Zrotation
			JOINT mixamorig:LeftFoot
			{
				OFFSET -0.000001 -44.423672 -3.044401
				CHANNELS 6 Xposition Yposition Zposition Xrotation Yrotation Zrotation
				JOINT mixamorig:LeftToeBase
				{
					OFFSET -0.000002 -8.728669 10.710558
					CHANNELS 6 Xposition Yposition Zposition Xrotation Yrotation Zrotation
					JOINT mixamorig:LeftToe_End
					{
						OFFSET -0.000003 -0.000679 9.278133
						CHANNELS 6 Xposition Yposition Zposition Xrotation Yrotation Zrotation
						End Site
						{
							OFFSET 0.000000 -0.068021 927.813477
						}
					}
				}
			}
		}
	}
}
MOTION
Frames: 3
Frame Time: 0.033333
0.000006 104.270477 1.554256 0.000010 0.000003 -0.000113 -0.000005 10.181587 0.131522 0.000001 -0.000003 0.000084 -0.000000 9.893967 -1.470711 0.000001 0.000000 -0.000000 -0.000000 9.220802 -1.370642 0.000000 -0.000000 -0.000000 0.000001 16.740433 -2.049030 0.000000 -0.000000 -0.000000 0.000000 9.617859 1.685014 0.000000 0.000000 0.000000 0.000002 22.037384 7.501101 0.000000 -0.000000 0.000000 -4.569968 11.014880 -2.160881 0.000008 0.000001 -0.000038 -10.592773 -0.524801 -2.231726 -11.847493 75.577416 9.199194 -27.841427 0.000060 0.000634 44.292725 129.913914 -82.118675 -28.328817 -0.000002 0.000018 -0.000319 -0.000044 0.000009 -2.464598 -1.574169 2.682309 34.105341 -142.735996 103.679239 -3.214927 -1.873037 1.924607 242.201759 -40.980288 -57.499292 -2.654693 -1.528283 1.512963 252.873984 -26.210897 316.282319 -2.018842 -1.152001 1.108065 -0.000002 -0.000001 0.000002 -9.108353 -0.517946 2.260333 253.329175 18.183056 24.294715 -3.699987 0.000022 0.001757 231.207477 19.006589 38.494277 -2.850032 0.000049 0.000023 224.823873 13.580939 32.208362 -2.772155 -0.000017 -0.000025 -0.000003 -0.000002 0.000003 -9.532530 -0.000044 0.000536 233.620719 26.434157 49.919821 -3.700096 0.000236 0.004151 128.989379 17.166154 -34.903564 -2.949990 0.000386 -0.001848 96.853858 -2.469594 2.790548 -2.946609 -0.000001 -0.000166 -0.000001 0.000003 -0.000000 -9.103539 -0.042982 -1.864527 214.111008 34.215262 90.196862 -3.379236 0.000354 -0.000832 94.819999 -3.511158 3.804160 -2.889591 0.000303 0.000378 57.565285 -22.041811 12.202901 -2.638806 -0.000001 0.000941 -0.000000 0.000000 -0.000001 -8.076597 -0.486593 -3.805685 203.626381 24.439542 92.027906 -3.599923 0.000353 -0.003538 100.110984 -11.346189 13.819340 -2.099843 0.000271 -0.005748 51.126879 -22.943594 11.131092 -2.115751 -0.000055 -0.003677 -0.000000 0.000003 -0.000001 4.570446 11.014691 -2.160851 -0.000018 0.000010 -0.000021 10.592453 -0.524598 -2.232308 -11.583150 -71.326211 -8.325702 27.841738 -0.000060 -0.000076 51.067555 -109.884930 68.491744 28.328831 -0.000057 0.000016 0.000020 -0.000088 0.000000 2.466184 -1.576125 2.681862 27.330896 140.079626 -95.182887 3.217810 -1.871990 1.916554 -126.156080 43.338585 65.293822 2.656065 -1.528760 1.514607 -123.638022 34.235415 58.906202 2.020899 -1.154063 1.115150 0.000003 0.000001 0.000002 9.109232 -0.517818 2.260104 -102.941982 -19.589049 -24.457702 3.699907 0.000229 -0.000082 64.203027 -160.516317 149.376592 2.849923 0.000303 0.000585 -121.017319 -15.378833 -26.852206 2.774869 -0.000012 -0.000033 -0.000000 -0.000001 0.000001 9.533194 0.000171 0.000254 -141.227644 -46.417406 -101.255581 3.700075 0.000206 -0.000360 104.200915 -15.505878 19.836772 2.949994 0.000227 -0.000244 93.194830 4.295005 -4.538773 2.952864 -0.000028 0.000061 0.000004 -0.000002 0.000001 9.104465 -0.043029 -1.864982 -184.806477 -44.814282 168.379927 3.150008 0.000262 -0.000120 98.374504 2.941234 -3.403984 2.949885 0.000254 -0.000196 87.849073 20.741229 -19.991740 2.644324 0.000017 0.000060 0.000000 -0.000001 0.000001 8.077744 -0.486890 -3.806184 -186.981196 -27.442279 154.159050 3.599880 0.000346 0.014516 104.125735 9.103558 -11.215227 2.099894 0.000239 0.007459 85.504577 22.054206 -20.216679 2.125504 -0.000044 0.007503 0.000004 -0.000000 -0.000000 -8.207786 -6.751667 -1.599560 -0.077001 -0.000003 0.000080 -0.000002 -44.370110 0.345938 0.153719 -0.000000 -0.000000 0.000000 -44.423679 -3.043532 -0.076700 0.000000 -0.000002 -0.000006 -8.728667 10.710559 -0.000009 -0.000000 -0.000000 -0.000001 -0.000679 9.278123 0.000000 -0.000000 -0.000000 8.207792 -6.751710 -1.599556 -0.074518 -0.000003 0.000081 -0.000002 -44.370014 0.346960 0.148822 0.000002 0.000000 -0.000001 -44.423664 -3.044403 -0.074314 0.000000 -0.000002 -0.000004 -8.728671 10.710558 0.000007 -0.000000 -0.000000 0.000000 -0.000680 9.278137 -0.000000 0.000000 -0.000001 
0.000006 104.270477 1.554256 0.000010 0.000003 -0.000113 -0.000005 10.181587 0.131522 0.000001 -0.000003 0.000084 -0.000000 9.893967 -1.470711 0.000001 0.000000 -0.000000 -0.000000 9.220802 -1.370642 0.000000 -0.000000 -0.000000 0.000001 16.740433 -2.049030 0.000000 -0.000000 -0.000000 0.000000 9.617859 1.685014 0.000000 0.000000 0.000000 0.000002 22.037384 7.501101 0.000000 -0.000000 0.000000 -4.569968 11.014880 -2.160881 0.000008 0.000001 -0.000038 -10.592774 -0.524804 -2.231729 -10.644420 75.255899 8.215177 -27.841421 0.000068 0.000631 43.845682 130.136072 -81.769536 -28.328825 0.000008 0.000011 -0.000321 -0.000043 0.000009 -2.464577 -1.574190 2.682293 34.267961 -144.367113 105.007219 -3.214916 -1.873042 1.924575 244.198169 -41.386841 -56.237384 -2.654702 -1.528277 1.512908 255.778509 -26.830513 317.686250 -2.018831 -1.151984 1.108058 -0.000004 -0.000004 0.000004 -9.108343 -0.517962 2.260300 255.471095 19.127835 24.594543 -3.700018 0.000027 0.001766 230.540577 19.958521 40.867296 -2.850017 0.000076 0.000031 222.169511 14.372443 36.216081 -2.772166 -0.000023 -0.000018 -0.000001 0.000002 0.000001 -9.532537 -0.000048 0.000522 235.833045 26.740399 48.387990 -3.700100 0.000228 0.004154 128.801863 17.574423 -35.557326 -2.949973 0.000399 -0.001813 96.310865 -2.482423 2.778395 -2.946632 -0.000000 -0.000160 -0.000001 -0.000003 0.000000 -9.103557 -0.042987 -1.864539 217.048877 35.088157 86.679274 -3.379258 0.000346 -0.000834 95.687549 -2.086227 2.288280 -2.889586 0.000312 0.000408 60.257145 -20.790456 12.141278 -2.638789 -0.000015 0.000938 0.000002 -0.000003 -0.000002 -8.076588 -0.486616 -3.805686 206.282682 25.229339 87.588980 -3.599909 0.000324 -0.003520 98.960644 -9.190364 11.045247 -2.099863 0.000265 -0.005753 50.777511 -20.561074 9.887576 -2.115767 -0.000039 -0.003680 -0.000000 -0.000000 -0.000004 4.570446 11.014691 -2.160851 -0.000018 0.000010 -0.000021 10.592451 -0.524609 -2.232306 -11.973920 -70.666011 -8.503679 27.841738 -0.000069 -0.000078 50.773468 -110.852734 69.101017 28.328835 -0.000043 0.000017 0.000020 -0.000089 0.000002 2.466198 -1.576117 2.681880 26.246713 140.510747 -94.440998 3.217820 -1.872009 1.916537 -126.655230 43.515583 65.803702 2.656055 -1.528737 1.514607 -122.588208 33.401968 57.632904 2.020894 -1.154069 1.115152 -0.000004 -0.000001 0.000004 9.109258 -0.517823 2.260131 -102.713908 -19.807731 -24.630166 3.699887 0.000233 -0.000084 63.635479 -160.168783 148.518201 2.849908 0.000302 0.000600 -122.138686 -16.211649 -28.897677 2.774881 -0.000045 -0.000033 0.000001 0.000002 0.000002 9.533195 0.000162 0.000249 -144.757089 -45.382314 -105.560888 3.700076 0.000216 -0.000363 103.178812 -14.689766 18.463970 2.949988 0.000241 -0.000222 91.025494 4.245666 -4.319963 2.952862 -0.000034 0.000060 0.000002 0.000002 0.000001 9.104442 -0.043022 -1.864972 -179.809156 -44.600647 180.469020 3.149990 0.000297 -0.000135 97.060547 3.964704 -4.483944 2.949884 0.000244 -0.000173 85.867301 21.350297 -19.893312 2.644316 0.000046 0.000059 -0.000005 0.000001 0.000000 8.077670 -0.486872 -3.806158 -180.336487 -28.610064 180.508963 3.599902 0.000324 0.014529 104.347368 9.456462 -11.716531 2.099901 0.000218 0.007474 85.185334 22.281663 -20.318575 2.125503 -0.000032 0.007506 -0.000000 0.000000 0.000000 -8.207786 -6.751667 -1.599560 -0.077001 -0.000003 0.000080 -0.000002 -44.370110 0.345938 0.153719 -0.000000 -0.000000 0.000000 -44.423679 -3.043532 -0.076700 0.000000 -0.000002 -0.000006 -8.728667 10.710559 -0.000009 -0.000000 -0.000000 -0.000001 -0.000679 9.278123 0.000000 -0.000000 -0.000000 8.207792 -6.751710 -1.599556 -0.074518 -0.000003 0.000081 -0.000002 -44.370014 0.346960 0.148822 0.000002 0.000000 -0.000001 -44.423664 -3.044403 -0.074314 0.000000 -0.000002 -0.000004 -8.728671 10.710558 0.000007 -0.000000 -0.000000 0.000000 -0.000680 9.278137 -0.000000 0.000000 -0.000001 
0.000006 104.270477 1.554256 0.000010 0.000003 -0.000113 -0.000005 10.181587 0.131522 0.000001 -0.000003 0.000084 -0.000000 9.893967 -1.470711 0.000001 0.000000 -0.000000 -0.000000 9.220802 -1.370642 0.000000 -0.000000 -0.000000 0.000001 16.740433 -2.049030 0.000000 -0.000000 -0.000000 0.000000 9.617859 1.685014 0.000000 0.000000 0.000000 0.000002 22.037384 7.501101 0.000000 -0.000000 0.000000 -4.569968 11.014880 -2.160881 0.000008 0.000001 -0.000038 -10.592773 -0.524800 -2.231728 -10.698321 75.278998 8.260305 -27.841412 0.000084 0.000632 43.332752 128.482798 -78.929755 -28.328827 0.000008 0.000027 -0.000324 -0.000046 0.000009 -2.464574 -1.574189 2.682319 33.125055 -147.913921 106.628815 -3.214943 -1.873051 1.924587 244.140577 -39.600443 -55.336236 -2.654711 -1.528280 1.512955 258.277019 -24.093084 320.350625 -2.018853 -1.151981 1.108061 -0.000004 -0.000002 0.000004 -9.108329 -0.517961 2.260289 256.441857 21.088755 26.623592 -3.700008 0.000024 0.001779 227.680504 20.691725 44.877830 -2.850024 0.000095 0.000045 217.752332 14.233292 40.118991 -2.772173 -0.000027 -0.000034 -0.000004 -0.000003 0.000001 -9.532505 -0.000048 0.000527 236.034344 28.244512 50.671527 -3.700084 0.000220 0.004168 130.972115 18.685989 -39.459854 -2.949961 0.000381 -0.001819 96.038054 -3.142882 3.498939 -2.946626 0.000014 -0.000153 0.000001 0.000007 0.000000 -9.103514 -0.043015 -1.864537 214.288347 36.055978 93.082112 -3.379249 0.000347 -0.000839 95.854588 -1.318113 1.443899 -2.889585 0.000328 0.000388 59.059826 -20.792310 11.854102 -2.638806 -0.000014 0.000939 0.000001 0.000000 -0.000001 -8.076553 -0.486585 -3.805677 201.822528 25.817347 99.935093 -3.599940 0.000345 -0.003515 99.895867 -7.893961 9.699474 -2.099875 0.000236 -0.005748 49.832766 -20.237379 9.525014 -2.115776 -0.000039 -0.003680 -0.000000 -0.000000 0.000000 4.570446 11.014691 -2.160851 -0.000018 0.000010 -0.000021 10.592452 -0.524622 -2.232306 -11.784456 -71.068241 -8.430840 27.841732 -0.000072 -0.000079 51.257827 -110.253904 69.085690 28.328823 -0.000046 0.000020 0.000021 -0.000090 0.000000 2.466197 -1.576156 2.681867 25.574387 140.271158 -93.595879 3.217827 -1.872002 1.916529 -127.529276 44.014111 66.816332 2.656071 -1.528754 1.514613 -122.694950 33.634829 57.850336 2.020890 -1.154071 1.115153 0.000002 0.000003 0.000006 9.109242 -0.517853 2.260107 -101.833783 -20.028585 -24.525293 3.699916 0.000221 -0.000067 63.861108 -158.835954 146.612948 2.849872 0.000301 0.000577 -124.316929 -17.875665 -33.162805 2.774877 -0.000028 -0.000030 -0.000000 -0.000001 -0.000002 9.533198 0.000135 0.000235 -148.655393 -46.072341 -113.171624 3.700068 0.000208 -0.000369 103.425511 -15.121568 19.085920 2.949984 0.000228 -0.000207 91.881522 2.834567 -2.926757 2.952871 0.000017 0.000063 -0.000000 -0.000005 -0.000002 9.104422 -0.043020 -1.864958 -177.098131 -44.234842 187.136050 3.149988 0.000284 -0.000137 97.629993 4.359532 -4.980134 2.949896 0.000252 -0.000186 87.472081 20.419544 -19.554499 2.644323 0.000031 0.000050 0.000001 0.000002 0.000001 8.077633 -0.486868 -3.806155 -177.491031 -29.689849 191.041334 3.599915 0.000309 0.014546 105.411867 9.309124 -11.748478 2.099906 0.000234 0.007478 87.600188 21.214810 -20.139832 2.125509 -0.000013 0.007511 0.000003 0.000000 0.000001 -8.207786 -6.751667 -1.599560 -0.077001 -0.000003 0.000080 -0.000002 -44.370110 0.345938 0.153719 -0.000000 -0.000000 0.000000 -44.423679 -3.043532 -0.076700 0.000000 -0.000002 -0.000006 -8.728667 10.710559 -0.000009 -0.000000 -0.000000 -0.000001 -0.000679 9.278123 0.000000 -0.000000 -0.000000 8.207792 -6.751710 -1.599556 -0.074518 -0.000003 0.000081 -0.000002 -44.370014 0.346960 0.148822 0.000002 0.000000 -0.000001 -44.423664 -3.044403 -0.074314 0.000000 -0.000002 -0.000004 -8.728671 10.710558 0.000007 -0.000000 -0.000000 0.000000 -0.000680 9.278137 -0.000000 0.000000 -0.000001 
